<mxfile host="app.diagrams.net" modified="2020-09-15T04:35:32.792Z" agent="5.0 (Windows NT 10.0; Win64; x64) AppleWebKit/537.36 (KHTML, like Gecko) Chrome/85.0.4183.102 Safari/537.36" etag="xjms4mqWQvPV4qvDlNgE" version="13.7.1" type="github" pages="2">
  <diagram id="n4LTEpsfIvKaZiCbYc9N" name="PÃ¡gina-1">
    <mxGraphModel dx="813" dy="454" grid="1" gridSize="10" guides="1" tooltips="1" connect="1" arrows="1" fold="1" page="1" pageScale="1" pageWidth="850" pageHeight="1100" math="0" shadow="0">
      <root>
        <mxCell id="0" />
        <mxCell id="1" parent="0" />
        <mxCell id="Rl_b0YaaDQfLBDHH3d9v-8" style="edgeStyle=orthogonalEdgeStyle;rounded=0;orthogonalLoop=1;jettySize=auto;html=1;exitX=0.5;exitY=1;exitDx=0;exitDy=0;exitPerimeter=0;entryX=0.5;entryY=0;entryDx=0;entryDy=0;" edge="1" parent="1" source="Rl_b0YaaDQfLBDHH3d9v-1" target="Rl_b0YaaDQfLBDHH3d9v-2">
          <mxGeometry relative="1" as="geometry" />
        </mxCell>
        <mxCell id="Rl_b0YaaDQfLBDHH3d9v-1" value="Start" style="strokeWidth=2;html=1;shape=mxgraph.flowchart.start_1;whiteSpace=wrap;" vertex="1" parent="1">
          <mxGeometry x="360" y="40" width="100" height="60" as="geometry" />
        </mxCell>
        <mxCell id="Rl_b0YaaDQfLBDHH3d9v-10" style="edgeStyle=orthogonalEdgeStyle;rounded=0;orthogonalLoop=1;jettySize=auto;html=1;exitX=0.5;exitY=1;exitDx=0;exitDy=0;entryX=0.5;entryY=0;entryDx=0;entryDy=0;" edge="1" parent="1" source="Rl_b0YaaDQfLBDHH3d9v-2" target="Rl_b0YaaDQfLBDHH3d9v-3">
          <mxGeometry relative="1" as="geometry" />
        </mxCell>
        <mxCell id="Rl_b0YaaDQfLBDHH3d9v-2" value="i_sidex, i_sidey, o_area;" style="shape=internalStorage;whiteSpace=wrap;html=1;dx=15;dy=15;rounded=1;arcSize=8;strokeWidth=2;" vertex="1" parent="1">
          <mxGeometry x="315" y="140" width="190" height="70" as="geometry" />
        </mxCell>
        <mxCell id="Rl_b0YaaDQfLBDHH3d9v-11" style="edgeStyle=orthogonalEdgeStyle;rounded=0;orthogonalLoop=1;jettySize=auto;html=1;exitX=0.5;exitY=1;exitDx=0;exitDy=0;entryX=0.5;entryY=0;entryDx=0;entryDy=0;" edge="1" parent="1" source="Rl_b0YaaDQfLBDHH3d9v-3" target="Rl_b0YaaDQfLBDHH3d9v-4">
          <mxGeometry relative="1" as="geometry" />
        </mxCell>
        <mxCell id="Rl_b0YaaDQfLBDHH3d9v-3" value="i_sidex, i_sidey" style="html=1;strokeWidth=2;shape=manualInput;whiteSpace=wrap;rounded=1;size=26;arcSize=11;" vertex="1" parent="1">
          <mxGeometry x="330" y="250" width="160" height="80" as="geometry" />
        </mxCell>
        <mxCell id="Rl_b0YaaDQfLBDHH3d9v-12" style="edgeStyle=orthogonalEdgeStyle;rounded=0;orthogonalLoop=1;jettySize=auto;html=1;exitX=0.5;exitY=1;exitDx=0;exitDy=0;entryX=0.5;entryY=0;entryDx=0;entryDy=0;entryPerimeter=0;" edge="1" parent="1" source="Rl_b0YaaDQfLBDHH3d9v-4" target="Rl_b0YaaDQfLBDHH3d9v-5">
          <mxGeometry relative="1" as="geometry" />
        </mxCell>
        <mxCell id="Rl_b0YaaDQfLBDHH3d9v-4" value="o_area = i_sidex * i_sidey" style="rounded=1;whiteSpace=wrap;html=1;absoluteArcSize=1;arcSize=14;strokeWidth=2;" vertex="1" parent="1">
          <mxGeometry x="305" y="370" width="210" height="60" as="geometry" />
        </mxCell>
        <mxCell id="Rl_b0YaaDQfLBDHH3d9v-13" style="edgeStyle=orthogonalEdgeStyle;rounded=0;orthogonalLoop=1;jettySize=auto;html=1;entryX=0.5;entryY=0;entryDx=0;entryDy=0;entryPerimeter=0;" edge="1" parent="1" source="Rl_b0YaaDQfLBDHH3d9v-5" target="Rl_b0YaaDQfLBDHH3d9v-6">
          <mxGeometry relative="1" as="geometry" />
        </mxCell>
        <mxCell id="Rl_b0YaaDQfLBDHH3d9v-5" value="o_area" style="strokeWidth=2;html=1;shape=mxgraph.flowchart.document2;whiteSpace=wrap;size=0.25;" vertex="1" parent="1">
          <mxGeometry x="327.5" y="470" width="165" height="60" as="geometry" />
        </mxCell>
        <mxCell id="Rl_b0YaaDQfLBDHH3d9v-6" value="End" style="strokeWidth=2;html=1;shape=mxgraph.flowchart.start_1;whiteSpace=wrap;" vertex="1" parent="1">
          <mxGeometry x="360" y="570" width="100" height="60" as="geometry" />
        </mxCell>
      </root>
    </mxGraphModel>
  </diagram>
  <diagram id="0GqTDzJP4Z1fZ9BeaoMT" name="Table test">
    <mxGraphModel dx="1422" dy="794" grid="1" gridSize="10" guides="1" tooltips="1" connect="1" arrows="1" fold="1" page="1" pageScale="1" pageWidth="850" pageHeight="1100" math="0" shadow="0">
      <root>
        <mxCell id="v7TVvdcQAWTVd5_qe-Pj-0" />
        <mxCell id="v7TVvdcQAWTVd5_qe-Pj-1" parent="v7TVvdcQAWTVd5_qe-Pj-0" />
        <mxCell id="2kIgUrml1pIgd5pPR0la-0" value="" style="shape=table;html=1;whiteSpace=wrap;startSize=0;container=1;collapsible=0;childLayout=tableLayout;" vertex="1" parent="v7TVvdcQAWTVd5_qe-Pj-1">
          <mxGeometry x="80" y="170" width="600" height="250" as="geometry" />
        </mxCell>
        <mxCell id="2kIgUrml1pIgd5pPR0la-1" value="" style="shape=partialRectangle;html=1;whiteSpace=wrap;collapsible=0;dropTarget=0;pointerEvents=0;fillColor=none;top=0;left=0;bottom=0;right=0;points=[[0,0.5],[1,0.5]];portConstraint=eastwest;" vertex="1" parent="2kIgUrml1pIgd5pPR0la-0">
          <mxGeometry width="600" height="50" as="geometry" />
        </mxCell>
        <mxCell id="2kIgUrml1pIgd5pPR0la-2" value="Process" style="shape=partialRectangle;html=1;whiteSpace=wrap;connectable=0;overflow=hidden;fillColor=none;top=0;left=0;bottom=0;right=0;" vertex="1" parent="2kIgUrml1pIgd5pPR0la-1">
          <mxGeometry width="120" height="50" as="geometry" />
        </mxCell>
        <mxCell id="2kIgUrml1pIgd5pPR0la-3" value="i_sidex" style="shape=partialRectangle;html=1;whiteSpace=wrap;connectable=0;overflow=hidden;fillColor=none;top=0;left=0;bottom=0;right=0;" vertex="1" parent="2kIgUrml1pIgd5pPR0la-1">
          <mxGeometry x="120" width="120" height="50" as="geometry" />
        </mxCell>
        <mxCell id="2kIgUrml1pIgd5pPR0la-4" value="i_sidey" style="shape=partialRectangle;html=1;whiteSpace=wrap;connectable=0;overflow=hidden;fillColor=none;top=0;left=0;bottom=0;right=0;" vertex="1" parent="2kIgUrml1pIgd5pPR0la-1">
          <mxGeometry x="240" width="120" height="50" as="geometry" />
        </mxCell>
        <mxCell id="2kIgUrml1pIgd5pPR0la-5" value="o_area" style="shape=partialRectangle;html=1;whiteSpace=wrap;connectable=0;overflow=hidden;fillColor=none;top=0;left=0;bottom=0;right=0;" vertex="1" parent="2kIgUrml1pIgd5pPR0la-1">
          <mxGeometry x="360" width="120" height="50" as="geometry" />
        </mxCell>
        <mxCell id="2kIgUrml1pIgd5pPR0la-6" value="end" style="shape=partialRectangle;html=1;whiteSpace=wrap;connectable=0;overflow=hidden;fillColor=none;top=0;left=0;bottom=0;right=0;" vertex="1" parent="2kIgUrml1pIgd5pPR0la-1">
          <mxGeometry x="480" width="120" height="50" as="geometry" />
        </mxCell>
        <mxCell id="2kIgUrml1pIgd5pPR0la-7" value="" style="shape=partialRectangle;html=1;whiteSpace=wrap;collapsible=0;dropTarget=0;pointerEvents=0;fillColor=none;top=0;left=0;bottom=0;right=0;points=[[0,0.5],[1,0.5]];portConstraint=eastwest;" vertex="1" parent="2kIgUrml1pIgd5pPR0la-0">
          <mxGeometry y="50" width="600" height="50" as="geometry" />
        </mxCell>
        <mxCell id="2kIgUrml1pIgd5pPR0la-8" value="1" style="shape=partialRectangle;html=1;whiteSpace=wrap;connectable=0;overflow=hidden;fillColor=none;top=0;left=0;bottom=0;right=0;" vertex="1" parent="2kIgUrml1pIgd5pPR0la-7">
          <mxGeometry width="120" height="50" as="geometry" />
        </mxCell>
        <mxCell id="2kIgUrml1pIgd5pPR0la-9" value="{3}" style="shape=partialRectangle;html=1;whiteSpace=wrap;connectable=0;overflow=hidden;fillColor=none;top=0;left=0;bottom=0;right=0;" vertex="1" parent="2kIgUrml1pIgd5pPR0la-7">
          <mxGeometry x="120" width="120" height="50" as="geometry" />
        </mxCell>
        <mxCell id="2kIgUrml1pIgd5pPR0la-10" value="" style="shape=partialRectangle;html=1;whiteSpace=wrap;connectable=0;overflow=hidden;fillColor=none;top=0;left=0;bottom=0;right=0;" vertex="1" parent="2kIgUrml1pIgd5pPR0la-7">
          <mxGeometry x="240" width="120" height="50" as="geometry" />
        </mxCell>
        <mxCell id="2kIgUrml1pIgd5pPR0la-11" value="" style="shape=partialRectangle;html=1;whiteSpace=wrap;connectable=0;overflow=hidden;fillColor=none;top=0;left=0;bottom=0;right=0;" vertex="1" parent="2kIgUrml1pIgd5pPR0la-7">
          <mxGeometry x="360" width="120" height="50" as="geometry" />
        </mxCell>
        <mxCell id="2kIgUrml1pIgd5pPR0la-12" value="" style="shape=partialRectangle;html=1;whiteSpace=wrap;connectable=0;overflow=hidden;fillColor=none;top=0;left=0;bottom=0;right=0;" vertex="1" parent="2kIgUrml1pIgd5pPR0la-7">
          <mxGeometry x="480" width="120" height="50" as="geometry" />
        </mxCell>
        <mxCell id="2kIgUrml1pIgd5pPR0la-13" value="" style="shape=partialRectangle;html=1;whiteSpace=wrap;collapsible=0;dropTarget=0;pointerEvents=0;fillColor=none;top=0;left=0;bottom=0;right=0;points=[[0,0.5],[1,0.5]];portConstraint=eastwest;" vertex="1" parent="2kIgUrml1pIgd5pPR0la-0">
          <mxGeometry y="100" width="600" height="50" as="geometry" />
        </mxCell>
        <mxCell id="2kIgUrml1pIgd5pPR0la-14" value="2" style="shape=partialRectangle;html=1;whiteSpace=wrap;connectable=0;overflow=hidden;fillColor=none;top=0;left=0;bottom=0;right=0;" vertex="1" parent="2kIgUrml1pIgd5pPR0la-13">
          <mxGeometry width="120" height="50" as="geometry" />
        </mxCell>
        <mxCell id="2kIgUrml1pIgd5pPR0la-15" value="3" style="shape=partialRectangle;html=1;whiteSpace=wrap;connectable=0;overflow=hidden;fillColor=none;top=0;left=0;bottom=0;right=0;" vertex="1" parent="2kIgUrml1pIgd5pPR0la-13">
          <mxGeometry x="120" width="120" height="50" as="geometry" />
        </mxCell>
        <mxCell id="2kIgUrml1pIgd5pPR0la-16" value="{5}" style="shape=partialRectangle;html=1;whiteSpace=wrap;connectable=0;overflow=hidden;fillColor=none;top=0;left=0;bottom=0;right=0;" vertex="1" parent="2kIgUrml1pIgd5pPR0la-13">
          <mxGeometry x="240" width="120" height="50" as="geometry" />
        </mxCell>
        <mxCell id="2kIgUrml1pIgd5pPR0la-17" value="" style="shape=partialRectangle;html=1;whiteSpace=wrap;connectable=0;overflow=hidden;fillColor=none;top=0;left=0;bottom=0;right=0;" vertex="1" parent="2kIgUrml1pIgd5pPR0la-13">
          <mxGeometry x="360" width="120" height="50" as="geometry" />
        </mxCell>
        <mxCell id="2kIgUrml1pIgd5pPR0la-18" value="" style="shape=partialRectangle;html=1;whiteSpace=wrap;connectable=0;overflow=hidden;fillColor=none;top=0;left=0;bottom=0;right=0;" vertex="1" parent="2kIgUrml1pIgd5pPR0la-13">
          <mxGeometry x="480" width="120" height="50" as="geometry" />
        </mxCell>
        <mxCell id="2kIgUrml1pIgd5pPR0la-19" value="" style="shape=partialRectangle;html=1;whiteSpace=wrap;collapsible=0;dropTarget=0;pointerEvents=0;fillColor=none;top=0;left=0;bottom=0;right=0;points=[[0,0.5],[1,0.5]];portConstraint=eastwest;" vertex="1" parent="2kIgUrml1pIgd5pPR0la-0">
          <mxGeometry y="150" width="600" height="50" as="geometry" />
        </mxCell>
        <mxCell id="2kIgUrml1pIgd5pPR0la-20" value="3" style="shape=partialRectangle;html=1;whiteSpace=wrap;connectable=0;overflow=hidden;fillColor=none;top=0;left=0;bottom=0;right=0;" vertex="1" parent="2kIgUrml1pIgd5pPR0la-19">
          <mxGeometry width="120" height="50" as="geometry" />
        </mxCell>
        <mxCell id="2kIgUrml1pIgd5pPR0la-21" value="3" style="shape=partialRectangle;html=1;whiteSpace=wrap;connectable=0;overflow=hidden;fillColor=none;top=0;left=0;bottom=0;right=0;" vertex="1" parent="2kIgUrml1pIgd5pPR0la-19">
          <mxGeometry x="120" width="120" height="50" as="geometry" />
        </mxCell>
        <mxCell id="2kIgUrml1pIgd5pPR0la-22" value="5" style="shape=partialRectangle;html=1;whiteSpace=wrap;connectable=0;overflow=hidden;fillColor=none;top=0;left=0;bottom=0;right=0;" vertex="1" parent="2kIgUrml1pIgd5pPR0la-19">
          <mxGeometry x="240" width="120" height="50" as="geometry" />
        </mxCell>
        <mxCell id="2kIgUrml1pIgd5pPR0la-23" value="3 * 5 = 15" style="shape=partialRectangle;html=1;whiteSpace=wrap;connectable=0;overflow=hidden;fillColor=none;top=0;left=0;bottom=0;right=0;" vertex="1" parent="2kIgUrml1pIgd5pPR0la-19">
          <mxGeometry x="360" width="120" height="50" as="geometry" />
        </mxCell>
        <mxCell id="2kIgUrml1pIgd5pPR0la-24" value="" style="shape=partialRectangle;html=1;whiteSpace=wrap;connectable=0;overflow=hidden;fillColor=none;top=0;left=0;bottom=0;right=0;" vertex="1" parent="2kIgUrml1pIgd5pPR0la-19">
          <mxGeometry x="480" width="120" height="50" as="geometry" />
        </mxCell>
        <mxCell id="u-4Hf4KzkhU-AZRRLQxn-0" style="shape=partialRectangle;html=1;whiteSpace=wrap;collapsible=0;dropTarget=0;pointerEvents=0;fillColor=none;top=0;left=0;bottom=0;right=0;points=[[0,0.5],[1,0.5]];portConstraint=eastwest;" vertex="1" parent="2kIgUrml1pIgd5pPR0la-0">
          <mxGeometry y="200" width="600" height="50" as="geometry" />
        </mxCell>
        <mxCell id="u-4Hf4KzkhU-AZRRLQxn-1" value="4" style="shape=partialRectangle;html=1;whiteSpace=wrap;connectable=0;overflow=hidden;fillColor=none;top=0;left=0;bottom=0;right=0;" vertex="1" parent="u-4Hf4KzkhU-AZRRLQxn-0">
          <mxGeometry width="120" height="50" as="geometry" />
        </mxCell>
        <mxCell id="u-4Hf4KzkhU-AZRRLQxn-2" value="3" style="shape=partialRectangle;html=1;whiteSpace=wrap;connectable=0;overflow=hidden;fillColor=none;top=0;left=0;bottom=0;right=0;" vertex="1" parent="u-4Hf4KzkhU-AZRRLQxn-0">
          <mxGeometry x="120" width="120" height="50" as="geometry" />
        </mxCell>
        <mxCell id="u-4Hf4KzkhU-AZRRLQxn-3" value="5" style="shape=partialRectangle;html=1;whiteSpace=wrap;connectable=0;overflow=hidden;fillColor=none;top=0;left=0;bottom=0;right=0;" vertex="1" parent="u-4Hf4KzkhU-AZRRLQxn-0">
          <mxGeometry x="240" width="120" height="50" as="geometry" />
        </mxCell>
        <mxCell id="u-4Hf4KzkhU-AZRRLQxn-4" style="shape=partialRectangle;html=1;whiteSpace=wrap;connectable=0;overflow=hidden;fillColor=none;top=0;left=0;bottom=0;right=0;" vertex="1" parent="u-4Hf4KzkhU-AZRRLQxn-0">
          <mxGeometry x="360" width="120" height="50" as="geometry" />
        </mxCell>
        <mxCell id="u-4Hf4KzkhU-AZRRLQxn-5" value="15" style="shape=partialRectangle;html=1;whiteSpace=wrap;connectable=0;overflow=hidden;fillColor=none;top=0;left=0;bottom=0;right=0;" vertex="1" parent="u-4Hf4KzkhU-AZRRLQxn-0">
          <mxGeometry x="480" width="120" height="50" as="geometry" />
        </mxCell>
        <mxCell id="u-4Hf4KzkhU-AZRRLQxn-12" value="3 * 5 = 15" style="shape=partialRectangle;html=1;whiteSpace=wrap;connectable=0;overflow=hidden;fillColor=none;top=0;left=0;bottom=0;right=0;" vertex="1" parent="v7TVvdcQAWTVd5_qe-Pj-1">
          <mxGeometry x="440" y="370" width="120" height="50" as="geometry" />
        </mxCell>
      </root>
    </mxGraphModel>
  </diagram>
</mxfile>
